<svg xmlns="http://www.w3.org/2000/svg" width="33" height="25" fill="none"><path fill="#918F8F" d="M.25 1h31.5M.26 1.97.25 2c-.56 0-1-.44-1-1 0-.57.44-1 1-1l.01.02v1.95ZM31.73.02l.02-.02c.55 0 1 .43 1 1 0 .56-.45 1-1 1l-.02-.03V.02Z"/><path stroke="#282828" stroke-linecap="round" stroke-width="2" d="M.25 1h31.5"/><path fill="#918F8F" d="M.25 12.16h31.5m-31.49.98-.01.02c-.56 0-1-.44-1-1s.44-1 1-1l.01.02v1.96Zm31.47-1.96.02-.02c.55 0 1 .44 1 1s-.45 1-1 1l-.02-.02v-1.96Z"/><path stroke="#282828" stroke-linecap="round" stroke-width="2" d="M.25 12.16h31.5"/><path fill="#918F8F" d="M.25 23.32h31.5M.26 24.3l-.01.02c-.56 0-1-.44-1-1s.44-1 1-1l.01.02v1.96Zm31.47-1.96.02-.02c.55 0 1 .44 1 1s-.45 1-1 1l-.02-.02v-1.96Z"/><path stroke="#282828" stroke-linecap="round" stroke-width="2" d="M.25 23.32h31.5"/></svg>